<svg width="23" height="18" viewBox="0 0 23 18" fill="none" xmlns="http://www.w3.org/2000/svg">
<path d="M9.5167 16.5763C9.41359 16.484 8.97274 16.1352 8.6101 15.8104C6.32937 13.9058 2.59631 8.93739 1.45684 6.33693C1.27374 5.942 0.886215 4.94354 0.861328 4.41007C0.861328 3.8989 0.989319 3.41161 1.24886 2.94662C1.6115 2.36697 2.18212 1.90197 2.85585 1.64718C3.32337 1.48316 4.72238 1.22837 4.74727 1.22837C6.27782 0.973577 8.76475 0.833443 11.513 0.833443C14.1315 0.833443 16.5171 0.973577 18.0707 1.18219C18.0956 1.20607 19.8342 1.46087 20.4297 1.73954C21.5176 2.25072 22.1931 3.24918 22.1931 4.31771V4.41007C22.1664 5.10597 21.4909 6.56942 21.466 6.56942C20.3248 9.02975 16.7748 13.8835 14.4159 15.8343C14.4159 15.8343 13.8097 16.3836 13.4311 16.6225C12.8871 16.9951 12.2134 17.1799 11.5397 17.1799C10.7877 17.1799 10.0873 16.9713 9.5167 16.5763Z" fill="#F06322"/>
</svg>
