<svg width="23" height="18" viewBox="0 0 23 18" fill="none" xmlns="http://www.w3.org/2000/svg">
<path d="M13.6103 1.43703C13.7134 1.52939 14.1542 1.87814 14.5169 2.203C16.7976 4.10756 20.5306 9.07598 21.6701 11.6764C21.8532 12.0714 22.2407 13.0698 22.2656 13.6033C22.2656 14.1145 22.1376 14.6018 21.8781 15.0668C21.5155 15.6464 20.9448 16.1114 20.2711 16.3662C19.8036 16.5302 18.4046 16.785 18.3797 16.785C16.8491 17.0398 14.3622 17.1799 11.614 17.1799C8.99548 17.1799 6.60988 17.0398 5.05621 16.8312C5.03132 16.8073 3.29278 16.5525 2.69727 16.2738C1.60935 15.7627 0.933846 14.7642 0.933846 13.6957V13.6033C0.96051 12.9074 1.63602 11.4439 1.6609 11.4439C2.80215 8.98362 6.35212 4.12985 8.71106 2.17911C8.71106 2.17911 9.31723 1.62972 9.69587 1.39085C10.2398 1.01822 10.9136 0.833496 11.5873 0.833496C12.3392 0.833496 13.0396 1.04211 13.6103 1.43703Z" fill="#75D2CE"/>
</svg>
